<svg width="230" height="235" viewBox="0 0 230 235" fill="none" xmlns="http://www.w3.org/2000/svg">
<circle cx="115" cy="115" r="115" fill="#F1F1F1"/>
<mask id="mask0_230_1466" style="mask-type:alpha" maskUnits="userSpaceOnUse" x="0" y="0" width="230" height="230">
<circle cx="115" cy="115" r="115" fill="#050C18"/>
</mask>
<g mask="url(#mask0_230_1466)">
<path d="M85.873 47C92.9875 49.0965 103.218 51.2797 115.623 51.2022C127.423 51.1293 137.194 49.0419 144.117 47C144.813 53.4537 145.509 59.9029 146.21 66.3566L119.817 100.316L87.5561 73.6581L85.873 47Z" fill="#826437"/>
<path d="M215.08 109.272L198.868 128.009L186.85 141.873L182.551 138.259L168.827 126.76V237.991H61.1634V126.765L47.4257 138.273L43.1406 141.873L31.1224 128.009L14.9102 109.272L18.6812 104.714L53.0072 63.2209C55.8867 59.7479 59.6077 57.0771 63.8154 55.4637C68.9284 53.4993 74.0322 51.5486 79.1498 49.5842C80.4053 49.1057 81.6653 48.6134 82.9208 48.1349C84.4902 48.7912 85.4727 49.1923 87.0284 49.8486C89.4394 55.45 96.24 68.1205 114.995 78.8858C133.746 68.1205 140.546 55.45 142.962 49.8486C144.522 49.1923 145.5 48.7912 147.074 48.1349C148.329 48.6134 149.589 49.1057 150.845 49.5842C155.958 51.5486 161.062 53.4993 166.179 55.4637C170.387 57.0771 174.108 59.7479 176.988 63.2209L211.35 104.764L215.085 109.272H215.08Z" fill="#9C7A47"/>
<path d="M114.995 78.8857V85.7132C97.0726 80.1665 83.1848 57.6696 79.1499 49.5842C80.228 49.1695 81.3106 48.7502 82.3933 48.3354C83.5487 47.8933 84.7178 47.4421 85.8732 47C86.5373 48.0711 90.8997 65.0577 114.995 78.8857V78.8857Z" fill="#624822"/>
<path d="M77.9308 130.114V238H61.1635V126.765L60.7359 127.102L47.4258 138.273L43.1408 141.873L31.1226 128.009L35.4941 124.344L63.6745 93.8624C63.6745 93.8624 75.8519 116.259 77.9262 130.114H77.9308Z" fill="#826437"/>
<path d="M114.995 78.8857V85.7132C132.918 80.5858 146.806 57.6696 150.84 49.5842C149.758 49.1695 148.68 48.7502 147.597 48.3354C146.442 47.8933 145.273 47.4421 144.117 47C143.453 48.0711 139.091 65.0577 114.995 78.8857V78.8857Z" fill="#624822"/>
<path d="M198.868 128.009L186.85 141.873L182.551 138.259L169.254 127.102L168.827 126.765V237.995H152.06V130.114C154.134 116.264 166.311 93.8624 166.311 93.8624L194.478 124.331L198.863 128.009H198.868Z" fill="#826437"/>
<path d="M47.4257 138.273L43.1406 141.873L31.127 128.009L14.9102 109.272L18.6812 104.714L35.4985 124.344L47.4257 138.273Z" fill="#624822"/>
<path d="M215.08 109.272L198.868 128.009L186.849 141.873L182.551 138.264L194.464 124.344L194.478 124.335L211.282 104.714L211.345 104.764L215.08 109.272Z" fill="#624822"/>
</g>
<circle cx="115" cy="115" r="114.5" stroke="#D6B17A"/>
<rect x="72" y="210" width="87" height="25" rx="3" fill="#624822"/>
<path d="M88.084 217.6H90.676L92.584 222.916L94.504 217.6H97.048L93.64 226.06H91.48L88.084 217.6ZM103.958 226.168C103.31 226.168 102.71 226.056 102.158 225.832C101.606 225.6 101.13 225.288 100.73 224.896C100.33 224.504 100.014 224.044 99.7821 223.516C99.5581 222.988 99.4461 222.424 99.4461 221.824V221.8C99.4461 221.2 99.5581 220.636 99.7821 220.108C100.014 219.572 100.334 219.108 100.742 218.716C101.15 218.316 101.63 218.004 102.182 217.78C102.734 217.548 103.334 217.432 103.982 217.432C104.63 217.432 105.23 217.548 105.782 217.78C106.334 218.004 106.81 218.312 107.21 218.704C107.61 219.096 107.922 219.556 108.146 220.084C108.378 220.612 108.494 221.176 108.494 221.776V221.8C108.494 222.4 108.378 222.968 108.146 223.504C107.922 224.032 107.606 224.496 107.198 224.896C106.79 225.288 106.31 225.6 105.758 225.832C105.206 226.056 104.606 226.168 103.958 226.168ZM103.982 224.068C104.302 224.068 104.59 224.008 104.846 223.888C105.11 223.768 105.334 223.608 105.518 223.408C105.702 223.2 105.846 222.96 105.95 222.688C106.054 222.416 106.106 222.128 106.106 221.824V221.8C106.106 221.496 106.054 221.208 105.95 220.936C105.846 220.656 105.698 220.412 105.506 220.204C105.322 219.996 105.098 219.832 104.834 219.712C104.57 219.592 104.278 219.532 103.958 219.532C103.638 219.532 103.346 219.592 103.082 219.712C102.818 219.832 102.594 219.996 102.41 220.204C102.226 220.404 102.082 220.64 101.978 220.912C101.874 221.184 101.822 221.472 101.822 221.776V221.8C101.822 222.104 101.874 222.392 101.978 222.664C102.082 222.936 102.23 223.176 102.422 223.384C102.614 223.592 102.842 223.76 103.106 223.888C103.37 224.008 103.662 224.068 103.982 224.068ZM113.783 219.64H111.275V217.6H118.631V219.64H116.111V226H113.783V219.64ZM124.957 217.54H127.201L130.777 226H128.281L127.681 224.488H124.429L123.829 226H121.393L124.957 217.54ZM126.997 222.676L126.061 220.3L125.113 222.676H126.997ZM133.992 217.6H137.964C138.612 217.6 139.16 217.68 139.608 217.84C140.056 218 140.42 218.22 140.7 218.5C141.196 218.996 141.444 219.648 141.444 220.456V220.48C141.444 221.128 141.288 221.668 140.976 222.1C140.664 222.524 140.244 222.848 139.716 223.072L141.72 226H139.044L137.352 223.456H136.32V226H133.992V217.6ZM137.868 221.632C138.26 221.632 138.564 221.544 138.78 221.368C139.004 221.184 139.116 220.94 139.116 220.636V220.612C139.116 220.276 139 220.024 138.768 219.856C138.544 219.688 138.24 219.604 137.856 219.604H136.32V221.632H137.868Z" fill="#F1F1F1"/>
<circle cx="30" cy="30" r="30" fill="#9C7A47"/>
<circle cx="30" cy="30" r="29.5" stroke="#F1F1F1"/>
<path d="M32.8838 36.7843H29.117L28.5375 40.2858H23.9883L24.5679 36.7843H21.4095L20.83 40.2858H16.2808L16.8604 36.7843H14.5713V31.1527H17.8165L18.2222 28.8767H15.4695V23.2451H19.1784L19.7579 19.8603H24.3071L23.7276 23.2451H26.8859L27.4654 19.8603H32.0146L31.4351 23.2451H33.7821V28.8767H30.4789L30.0732 31.1527H32.8838V36.7843ZM22.1339 31.3861H25.6979L26.1615 28.6432H22.5975L22.1339 31.3861Z" fill="#F1F1F1"/>
<path d="M38.7641 25.6961L35.4608 26.4256L34.2439 21.3776L40.2998 19.7144H45.4284V40.2858H38.7641V25.6961Z" fill="#F1F1F1"/>
</svg>
