<svg width="230" height="230" viewBox="0 0 230 230" fill="none" xmlns="http://www.w3.org/2000/svg">
<circle cx="115" cy="115" r="114.5" fill="#F1F1F1" stroke="#087F4B"/>
<mask id="mask0_230_1467" style="mask-type:alpha" maskUnits="userSpaceOnUse" x="0" y="0" width="230" height="230">
<circle cx="115" cy="115" r="115" fill="#F1F1F1"/>
</mask>
<g mask="url(#mask0_230_1467)">
<rect x="69.5" y="36.5" width="237" height="44" rx="2.5" fill="#9C7A47" stroke="#D6B17A"/>
<rect x="69.5" y="150.5" width="237" height="44" rx="2.5" fill="#9C7A47" stroke="#D6B17A"/>
<rect x="69.5" y="93.5" width="237" height="44" rx="2.5" fill="#9C7A47" stroke="#D6B17A"/>
<path d="M87.2199 58.772L85.9959 59.828L85.3359 58.712L86.8719 58.172L85.3359 57.632L85.9959 56.528L87.2199 57.584L86.9199 56H88.1799L87.8799 57.584L89.1159 56.528L89.7639 57.632L88.2399 58.172L89.7639 58.712L89.1159 59.828L87.8799 58.772L88.1799 60.356H86.9199L87.2199 58.772Z" fill="#F1F1F1"/>
<path d="M94.7176 58.772L93.4936 59.828L92.8336 58.712L94.3696 58.172L92.8336 57.632L93.4936 56.528L94.7176 57.584L94.4176 56H95.6776L95.3776 57.584L96.6136 56.528L97.2616 57.632L95.7376 58.172L97.2616 58.712L96.6136 59.828L95.3776 58.772L95.6776 60.356H94.4176L94.7176 58.772Z" fill="#F1F1F1"/>
<path d="M102.215 58.772L100.991 59.828L100.331 58.712L101.867 58.172L100.331 57.632L100.991 56.528L102.215 57.584L101.915 56H103.175L102.875 57.584L104.111 56.528L104.759 57.632L103.235 58.172L104.759 58.712L104.111 59.828L102.875 58.772L103.175 60.356H101.915L102.215 58.772Z" fill="#F1F1F1"/>
<path d="M109.713 58.772L108.489 59.828L107.829 58.712L109.365 58.172L107.829 57.632L108.489 56.528L109.713 57.584L109.413 56H110.673L110.373 57.584L111.609 56.528L112.257 57.632L110.733 58.172L112.257 58.712L111.609 59.828L110.373 58.772L110.673 60.356H109.413L109.713 58.772Z" fill="#F1F1F1"/>
<path d="M117.211 58.772L115.987 59.828L115.327 58.712L116.863 58.172L115.327 57.632L115.987 56.528L117.211 57.584L116.911 56H118.171L117.871 57.584L119.107 56.528L119.755 57.632L118.231 58.172L119.755 58.712L119.107 59.828L117.871 58.772L118.171 60.356H116.911L117.211 58.772Z" fill="#F1F1F1"/>
<path d="M124.708 58.772L123.484 59.828L122.824 58.712L124.36 58.172L122.824 57.632L123.484 56.528L124.708 57.584L124.408 56H125.668L125.368 57.584L126.604 56.528L127.252 57.632L125.728 58.172L127.252 58.712L126.604 59.828L125.368 58.772L125.668 60.356H124.408L124.708 58.772Z" fill="#F1F1F1"/>
<path d="M132.206 58.772L130.982 59.828L130.322 58.712L131.858 58.172L130.322 57.632L130.982 56.528L132.206 57.584L131.906 56H133.166L132.866 57.584L134.102 56.528L134.75 57.632L133.226 58.172L134.75 58.712L134.102 59.828L132.866 58.772L133.166 60.356H131.906L132.206 58.772Z" fill="#F1F1F1"/>
<path d="M87.2199 172.772L85.9959 173.828L85.3359 172.712L86.8719 172.172L85.3359 171.632L85.9959 170.528L87.2199 171.584L86.9199 170H88.1799L87.8799 171.584L89.1159 170.528L89.7639 171.632L88.2399 172.172L89.7639 172.712L89.1159 173.828L87.8799 172.772L88.1799 174.356H86.9199L87.2199 172.772Z" fill="#F1F1F1"/>
<path d="M94.7176 172.772L93.4936 173.828L92.8336 172.712L94.3696 172.172L92.8336 171.632L93.4936 170.528L94.7176 171.584L94.4176 170H95.6776L95.3776 171.584L96.6136 170.528L97.2616 171.632L95.7376 172.172L97.2616 172.712L96.6136 173.828L95.3776 172.772L95.6776 174.356H94.4176L94.7176 172.772Z" fill="#F1F1F1"/>
<path d="M102.215 172.772L100.991 173.828L100.331 172.712L101.867 172.172L100.331 171.632L100.991 170.528L102.215 171.584L101.915 170H103.175L102.875 171.584L104.111 170.528L104.759 171.632L103.235 172.172L104.759 172.712L104.111 173.828L102.875 172.772L103.175 174.356H101.915L102.215 172.772Z" fill="#F1F1F1"/>
<path d="M109.713 172.772L108.489 173.828L107.829 172.712L109.365 172.172L107.829 171.632L108.489 170.528L109.713 171.584L109.413 170H110.673L110.373 171.584L111.609 170.528L112.257 171.632L110.733 172.172L112.257 172.712L111.609 173.828L110.373 172.772L110.673 174.356H109.413L109.713 172.772Z" fill="#F1F1F1"/>
<path d="M117.211 172.772L115.987 173.828L115.327 172.712L116.863 172.172L115.327 171.632L115.987 170.528L117.211 171.584L116.911 170H118.171L117.871 171.584L119.107 170.528L119.755 171.632L118.231 172.172L119.755 172.712L119.107 173.828L117.871 172.772L118.171 174.356H116.911L117.211 172.772Z" fill="#F1F1F1"/>
<path d="M124.708 172.772L123.484 173.828L122.824 172.712L124.36 172.172L122.824 171.632L123.484 170.528L124.708 171.584L124.408 170H125.668L125.368 171.584L126.604 170.528L127.252 171.632L125.728 172.172L127.252 172.712L126.604 173.828L125.368 172.772L125.668 174.356H124.408L124.708 172.772Z" fill="#F1F1F1"/>
<path d="M132.206 172.772L130.982 173.828L130.322 172.712L131.858 172.172L130.322 171.632L130.982 170.528L132.206 171.584L131.906 170H133.166L132.866 171.584L134.102 170.528L134.75 171.632L133.226 172.172L134.75 172.712L134.102 173.828L132.866 172.772L133.166 174.356H131.906L132.206 172.772Z" fill="#F1F1F1"/>
<path d="M87.2199 115.772L85.9959 116.828L85.3359 115.712L86.8719 115.172L85.3359 114.632L85.9959 113.528L87.2199 114.584L86.9199 113H88.1799L87.8799 114.584L89.1159 113.528L89.7639 114.632L88.2399 115.172L89.7639 115.712L89.1159 116.828L87.8799 115.772L88.1799 117.356H86.9199L87.2199 115.772Z" fill="#F1F1F1"/>
<path d="M94.7176 115.772L93.4936 116.828L92.8336 115.712L94.3696 115.172L92.8336 114.632L93.4936 113.528L94.7176 114.584L94.4176 113H95.6776L95.3776 114.584L96.6136 113.528L97.2616 114.632L95.7376 115.172L97.2616 115.712L96.6136 116.828L95.3776 115.772L95.6776 117.356H94.4176L94.7176 115.772Z" fill="#F1F1F1"/>
<path d="M102.215 115.772L100.991 116.828L100.331 115.712L101.867 115.172L100.331 114.632L100.991 113.528L102.215 114.584L101.915 113H103.175L102.875 114.584L104.111 113.528L104.759 114.632L103.235 115.172L104.759 115.712L104.111 116.828L102.875 115.772L103.175 117.356H101.915L102.215 115.772Z" fill="#F1F1F1"/>
<path d="M109.713 115.772L108.489 116.828L107.829 115.712L109.365 115.172L107.829 114.632L108.489 113.528L109.713 114.584L109.413 113H110.673L110.373 114.584L111.609 113.528L112.257 114.632L110.733 115.172L112.257 115.712L111.609 116.828L110.373 115.772L110.673 117.356H109.413L109.713 115.772Z" fill="#F1F1F1"/>
<path d="M117.211 115.772L115.987 116.828L115.327 115.712L116.863 115.172L115.327 114.632L115.987 113.528L117.211 114.584L116.911 113H118.171L117.871 114.584L119.107 113.528L119.755 114.632L118.231 115.172L119.755 115.712L119.107 116.828L117.871 115.772L118.171 117.356H116.911L117.211 115.772Z" fill="#F1F1F1"/>
<path d="M124.708 115.772L123.484 116.828L122.824 115.712L124.36 115.172L122.824 114.632L123.484 113.528L124.708 114.584L124.408 113H125.668L125.368 114.584L126.604 113.528L127.252 114.632L125.728 115.172L127.252 115.712L126.604 116.828L125.368 115.772L125.668 117.356H124.408L124.708 115.772Z" fill="#F1F1F1"/>
<path d="M132.206 115.772L130.982 116.828L130.322 115.712L131.858 115.172L130.322 114.632L130.982 113.528L132.206 114.584L131.906 113H133.166L132.866 114.584L134.102 113.528L134.75 114.632L133.226 115.172L134.75 115.712L134.102 116.828L132.866 115.772L133.166 117.356H131.906L132.206 115.772Z" fill="#F1F1F1"/>
</g>
<circle cx="115" cy="115" r="114.5" stroke="#D6B17A"/>
<circle cx="30" cy="30" r="30" fill="#9C7A47"/>
<circle cx="30" cy="30" r="29.5" stroke="#F1F1F1"/>
<path d="M29.5634 36.8236H25.7743L25.1914 40.2858H20.6153L21.1983 36.8236H18.0213L17.4383 40.2858H12.8622L13.4452 36.8236H11.1426V31.2551H14.407L14.8151 29.0047H12.0461V23.4363H15.7769L16.3599 20.0894H20.9359L20.353 23.4363H23.53L24.113 20.0894H28.689L28.1061 23.4363H30.467V29.0047H27.1442L26.7362 31.2551H29.5634V36.8236ZM18.7499 31.4859H22.335L22.8013 28.7739H19.2163L18.7499 31.4859Z" fill="#F1F1F1"/>
<path d="M31.6602 35.381L40.1128 29.3798C40.754 28.9374 41.2107 28.5142 41.4827 28.1103C41.7547 27.7063 41.8907 27.312 41.8907 26.9273C41.8907 26.4849 41.7256 26.1291 41.3953 25.8598C41.0844 25.5713 40.6374 25.427 40.0545 25.427C39.4716 25.427 38.8789 25.6194 38.2765 26.0041C37.6936 26.3888 36.9746 27.0331 36.1197 27.9372L31.631 24.1576C32.214 23.4459 32.8066 22.8111 33.409 22.2533C34.0308 21.6955 34.7012 21.2339 35.4201 20.8684C36.1391 20.4837 36.9163 20.1952 37.7519 20.0029C38.6069 19.8105 39.5687 19.7144 40.6374 19.7144C41.8033 19.7144 42.872 19.8779 43.8436 20.2048C44.8346 20.5318 45.6798 20.9935 46.3794 21.5897C47.0983 22.1668 47.6521 22.8592 48.0407 23.6671C48.4488 24.4749 48.6528 25.3597 48.6528 26.3214V26.3792C48.6528 27.1485 48.5557 27.841 48.3614 28.4565C48.167 29.0528 47.8853 29.601 47.5161 30.1011C47.1469 30.6012 46.7097 31.0628 46.2045 31.4859C45.6993 31.9091 45.1455 32.313 44.5431 32.6977L40.8998 35.0059H48.8569V40.2858H31.6602V35.381Z" fill="#F1F1F1"/>
</svg>
