<svg width="20" height="20" viewBox="0 0 20 20" fill="none" xmlns="http://www.w3.org/2000/svg">
<path d="M6 16C7.1 16 8 16.9 8 18C8 19.1 7.1 20 6 20C4.9 20 4 19.1 4 18C4 16.9 4.89 16 6 16Z" fill="#F1F1F1"/>
<path d="M14 16C15.1 16 16 16.9 16 18C16 19.1 15.1 20 14 20C12.9 20 12 19.1 12 18C12 16.9 12.89 16 14 16Z" fill="#F1F1F1"/>
<path fill-rule="evenodd" clip-rule="evenodd" d="M5 11C4.45228 11 4 11.4523 4 12C4 12.5477 4.45228 13 5 13H17V15H5C3.34772 15 2 13.6523 2 12C2 10.3477 3.34772 9 5 9H16V11H5Z" fill="#F1F1F1"/>
<path fill-rule="evenodd" clip-rule="evenodd" d="M1.27924 2H0V0H2C2.43043 0 2.81257 0.27543 2.94868 0.683772L5.72076 9H16.2457L18.0385 2.72528L19.9615 3.27472L17.9615 10.2747C17.8389 10.704 17.4465 11 17 11H5C4.56957 11 4.18743 10.7246 4.05132 10.3162L1.27924 2Z" fill="#F1F1F1"/>
</svg>
