<svg width="21" height="22" viewBox="0 0 21 22" fill="none" xmlns="http://www.w3.org/2000/svg">
<path fill-rule="evenodd" clip-rule="evenodd" d="M9 9C8.44772 9 8 9.44772 8 10V19C8 19.5523 8.44772 20 9 20H18C18.5523 20 19 19.5523 19 19V10C19 9.44772 18.5523 9 18 9H9ZM6 10C6 8.34315 7.34315 7 9 7H18C19.6569 7 21 8.34315 21 10V19C21 20.6569 19.6569 22 18 22H9C7.34315 22 6 20.6569 6 19V10Z" fill="#B1B1B1"/>
<path fill-rule="evenodd" clip-rule="evenodd" d="M3 2C2.73478 2 2.48043 2.10536 2.29289 2.29289C2.10536 2.48043 2 2.73478 2 3V12C2 12.2652 2.10536 12.5196 2.29289 12.7071C2.48043 12.8946 2.73478 13 3 13H4C4.55228 13 5 13.4477 5 14C5 14.5523 4.55228 15 4 15H3C2.20435 15 1.44129 14.6839 0.87868 14.1213C0.31607 13.5587 0 12.7956 0 12V3C0 2.20435 0.31607 1.44129 0.87868 0.87868C1.44129 0.31607 2.20435 0 3 0H12C12.7956 0 13.5587 0.31607 14.1213 0.87868C14.6839 1.44129 15 2.20435 15 3V4C15 4.55228 14.5523 5 14 5C13.4477 5 13 4.55228 13 4V3C13 2.73478 12.8946 2.48043 12.7071 2.29289C12.5196 2.10536 12.2652 2 12 2H3Z" fill="#B1B1B1"/>
</svg>
