<svg width="21" height="22" viewBox="0 0 21 22" fill="none" xmlns="http://www.w3.org/2000/svg">
<path d="M9.29297 17.8966C7.61183 17.8966 5.96843 17.3981 4.57062 16.4641C3.1728 15.5301 2.08334 14.2026 1.44 12.6494C0.796655 11.0962 0.628322 9.38718 0.956296 7.73834C1.28427 6.0895 2.09381 4.57494 3.28256 3.3862C4.47131 2.19745 5.98586 1.38791 7.6347 1.05993C9.28354 0.73196 10.9926 0.900293 12.5458 1.54364C14.0989 2.18698 15.4265 3.27644 16.3605 4.67425C17.2945 6.07207 17.793 7.71546 17.793 9.3966C17.7903 11.6501 16.8939 13.8106 15.3004 15.4041C13.707 16.9976 11.5465 17.894 9.29297 17.8966ZM9.29297 2.8966C8.00739 2.8966 6.75068 3.2778 5.68176 3.99203C4.61284 4.70626 3.77972 5.72143 3.28775 6.90915C2.79578 8.09687 2.66707 9.40382 2.91787 10.6647C3.16868 11.9256 3.78773 13.0838 4.69677 13.9928C5.60582 14.9018 6.76399 15.5209 8.02487 15.7717C9.28575 16.0225 10.5927 15.8938 11.7804 15.4018C12.9681 14.9099 13.9833 14.0767 14.6975 13.0078C15.4117 11.9389 15.793 10.6822 15.793 9.3966C15.7908 7.67335 15.1053 6.02126 13.8868 4.80273C12.6683 3.5842 11.0162 2.89872 9.29297 2.8966Z" fill="#222222"/>
<path d="M15.5002 14.1894L14.0859 15.6036L19.5858 21.1035L21 19.6893L15.5002 14.1894Z" fill="#222222"/>
</svg>
