<svg width="83" height="83" viewBox="0 0 83 83" fill="none" xmlns="http://www.w3.org/2000/svg">
<circle cx="41.5" cy="41.5" r="41" fill="url(#paint0_linear_269_50)" stroke="white"/>
<path d="M69.3091 26.4692L72.7213 23.9209L73.1164 24.6896L70.8232 26.3075L73.458 25.3563L73.8834 26.1821L69.8193 27.4627L69.3091 26.4692Z" fill="white"/>
<path d="M71.7081 32.159C71.5844 31.9911 71.4902 31.8034 71.4296 31.6039C71.3601 31.4076 71.3253 31.2007 71.3267 30.9925C71.3287 30.8269 71.3763 30.665 71.4642 30.5247C71.5531 30.3874 71.6712 30.2714 71.8101 30.1849C71.9788 30.0804 72.1601 29.9978 72.3497 29.9393L73.8196 29.4568C74.007 29.3914 74.202 29.3507 74.3999 29.3357C74.5625 29.3244 74.7257 29.3486 74.878 29.4066C75.033 29.4675 75.1678 29.5705 75.2672 29.7041C75.3912 29.8707 75.4851 30.0577 75.5447 30.2566C75.6143 30.4532 75.6494 30.6603 75.6485 30.8689C75.6465 31.0354 75.5993 31.1983 75.5119 31.3401C75.4225 31.4786 75.3045 31.5966 75.166 31.686C74.9975 31.7905 74.8165 31.8733 74.6273 31.9324L73.1573 32.4132C72.97 32.4785 72.7749 32.5189 72.5771 32.5334C72.414 32.5438 72.2507 32.5191 72.098 32.4608C71.9429 32.3978 71.808 32.2934 71.7081 32.159V32.159ZM72.1058 31.3808C72.119 31.4273 72.1462 31.4686 72.1836 31.4992C72.2198 31.5269 72.2644 31.541 72.3099 31.539C72.354 31.5391 72.398 31.5348 72.4413 31.526C72.4802 31.5174 72.5278 31.5044 72.5805 31.4871L74.5529 30.842C74.6074 30.823 74.6524 30.8066 74.6878 30.7902C74.7276 30.7721 74.7653 30.7498 74.8003 30.7236C74.8376 30.6981 74.865 30.6605 74.878 30.6172C74.8895 30.5705 74.8868 30.5214 74.8703 30.4763C74.859 30.4371 74.8372 30.4018 74.8072 30.3743C74.7823 30.3519 74.7527 30.3354 74.7207 30.3258C74.6853 30.3186 74.6488 30.3186 74.6135 30.3258C74.5777 30.3305 74.5422 30.3371 74.5071 30.3457C74.4812 30.3543 74.444 30.3647 74.3973 30.3812L72.4257 31.0262L72.3177 31.0625C72.2842 31.0762 72.2516 31.0918 72.22 31.1092C72.1869 31.1253 72.1575 31.148 72.1335 31.1758C72.1139 31.2013 72.1003 31.2308 72.0937 31.2623C72.0866 31.3027 72.0908 31.3443 72.1058 31.3825V31.3808Z" fill="white"/>
<path d="M72.5596 35.7832L75.9535 35.2203L75.8541 34.615L76.6038 34.4922L76.9713 36.7127L76.2216 36.8381L76.1213 36.2328L72.7273 36.794L72.5596 35.7832Z" fill="white"/>
<path d="M73.042 39.8845L77.241 39.792L77.2851 41.7575L76.5933 41.773L76.5726 40.8357L75.6353 40.8556L75.6508 41.5551L74.9365 41.5707L74.9219 40.8729L73.7485 40.8979L73.7701 41.8491L73.0835 41.8638L73.042 39.8845Z" fill="white"/>
<path d="M72.4402 47.8672L76.5199 48.8694L76.3469 49.5767L74.4169 49.8932L76.1645 50.3256L75.9612 51.1496L71.8833 50.1492L72.0502 49.4669L74.1514 49.198L72.2317 48.7276L72.4402 47.8672Z" fill="white"/>
<path d="M71.1121 52.5156L74.6825 54.8564L74.2155 55.958L70.0537 55.0146L70.4204 54.1499L71.2435 54.3549L71.4563 53.8533L70.7342 53.4106L71.1121 52.5156ZM71.9707 54.1586L71.8229 54.5044L73.3413 54.9411L71.9707 54.1586Z" fill="white"/>
<path d="M66.1682 61.0609C66.2606 60.9218 66.3806 60.8033 66.521 60.7128C66.6613 60.6223 66.8188 60.5618 66.9837 60.5352C67.3601 60.5426 67.7211 60.6857 68.0005 60.9381L67.5509 61.693C67.4605 61.6192 67.3642 61.553 67.263 61.495C67.1984 61.4537 67.1269 61.4244 67.052 61.4085C67.0053 61.4005 66.9574 61.4032 66.9119 61.4163C66.8742 61.4311 66.8413 61.4559 66.8168 61.4881C66.7459 61.5746 66.7744 61.6748 66.9032 61.7769C67.0157 61.8717 67.1533 61.9318 67.2993 61.9498C67.4732 61.9617 67.648 61.9483 67.8181 61.9101L68.164 61.84C68.2885 61.8149 68.3957 61.7994 68.4839 61.7899C68.5846 61.7812 68.6858 61.7812 68.7865 61.7899C68.9003 61.7988 69.0119 61.8262 69.1169 61.8711C69.2331 61.9224 69.3422 61.9886 69.4411 62.0683C69.5694 62.157 69.6767 62.2725 69.7557 62.4069C69.8347 62.5413 69.8835 62.6913 69.8986 62.8465C69.9056 63.1758 69.789 63.4958 69.5717 63.7432C69.1463 64.284 68.6104 64.3036 67.9642 63.802L68.4468 63.0463C68.5332 63.1146 68.5989 63.1648 68.643 63.1959C68.6896 63.2286 68.7388 63.2575 68.79 63.2823C68.8297 63.3049 68.875 63.3157 68.9206 63.3135C68.9579 63.3045 68.9906 63.282 69.0123 63.2503C69.0307 63.2257 69.0415 63.1962 69.0434 63.1654C69.0452 63.1347 69.038 63.1041 69.0226 63.0774C68.9948 63.0154 68.9524 62.9611 68.899 62.9192C68.8718 62.8975 68.8429 62.8782 68.8125 62.8612L68.7321 62.8189C68.7047 62.8057 68.6756 62.7967 68.6456 62.7921C68.6102 62.7851 68.5825 62.78 68.5591 62.7748C68.5306 62.7699 68.5016 62.7685 68.4727 62.7704H68.3922C68.3633 62.7708 68.3344 62.7734 68.3058 62.7782L68.2271 62.7903L68.1406 62.8068L68.0602 62.8206L67.7403 62.8785C67.6191 62.9006 67.4966 62.9151 67.3736 62.9218C67.2583 62.9282 67.1426 62.9251 67.0277 62.9123C66.9027 62.8985 66.7804 62.8655 66.6654 62.8145C66.5413 62.7605 66.425 62.6901 66.3196 62.6053C66.2067 62.5201 66.1124 62.4127 66.0425 62.2897C65.9726 62.1667 65.9286 62.0308 65.9131 61.8902C65.8978 61.7419 65.9124 61.592 65.9562 61.4496C66.0001 61.3071 66.0722 61.1749 66.1682 61.0609V61.0609Z" fill="white"/>
<path d="M62.8394 64.6569C62.9882 64.5122 63.1593 64.3922 63.3461 64.3015C63.49 64.2319 63.6506 64.2044 63.8095 64.222C63.9641 64.242 64.1121 64.2974 64.2419 64.3837C64.4045 64.4932 64.5527 64.6228 64.6829 64.7693L66.6717 66.9225L65.9203 67.6142L63.8139 65.3366C63.7809 65.2998 63.7457 65.2651 63.7084 65.2328C63.6734 65.2041 63.6361 65.1783 63.5968 65.1559C63.5564 65.1322 63.5094 65.1222 63.4628 65.1273C63.4141 65.1354 63.3691 65.1584 63.334 65.193C63.296 65.2251 63.2694 65.2684 63.2579 65.3167C63.2485 65.3627 63.2549 65.4105 63.276 65.4524C63.2952 65.4935 63.3184 65.5326 63.3452 65.5692C63.3746 65.6083 63.4061 65.6458 63.4395 65.6816L65.5459 67.961L64.7927 68.6527L62.8039 66.5013C62.6693 66.3594 62.5531 66.201 62.458 66.0301C62.3828 65.893 62.339 65.7409 62.33 65.5848C62.3249 65.4246 62.3654 65.2662 62.4468 65.1282C62.5521 64.9515 62.6846 64.7925 62.8394 64.6569V64.6569Z" fill="white"/>
<path d="M60.008 67.1016L61.6864 71.0265L60.6885 71.6845L57.7485 68.5958L58.5328 68.0769L59.1044 68.7047L59.5592 68.4038L59.203 67.6342L60.008 67.1016ZM59.8143 68.9434L59.4987 69.1518L60.5217 70.3563L59.8143 68.9434Z" fill="white"/>
<path d="M52.2556 71.1865L53.5794 75.1728L51.7981 75.7634L51.5811 75.1097L52.3861 74.8425L52.0835 73.9311L51.3571 74.1724L51.1323 73.4944L51.8578 73.254L51.2784 71.5108L52.2556 71.1865Z" fill="white"/>
<path d="M48.2495 72.3604L48.2235 76.6294L47.0467 76.8352L45.5767 72.829L46.5019 72.6673L46.776 73.4706L47.313 73.3764L47.2931 72.5281L48.2495 72.3604ZM47.3363 73.9748L46.9645 74.0387L47.4228 75.5503L47.3363 73.9748Z" fill="white"/>
<path d="M42.6829 73.0527L43.4828 77.2371L42.6181 77.2569L42.1667 74.4899L41.871 77.2751L40.9414 77.2967L41.5675 73.0813L42.6829 73.0527Z" fill="white"/>
<path d="M36.524 72.7293C36.7289 72.6907 36.939 72.6881 37.1448 72.7215C37.3518 72.7436 37.5532 72.8021 37.7397 72.8944C37.8884 72.9681 38.0138 73.0816 38.1021 73.2221C38.1858 73.3621 38.2385 73.5184 38.2568 73.6805C38.2769 73.8777 38.272 74.0768 38.2421 74.2728L38.0329 75.8085C38.0088 76.0055 37.96 76.1987 37.8876 76.3835C37.826 76.5347 37.7336 76.6714 37.6161 76.7848C37.4928 76.8954 37.3419 76.9706 37.1794 77.0027C36.9748 77.0417 36.7649 77.0443 36.5594 77.0104C36.352 76.9878 36.1501 76.9293 35.9628 76.8375C35.8137 76.7633 35.6878 76.6496 35.5987 76.5089C35.5139 76.3692 35.4603 76.2129 35.4413 76.0506C35.42 75.8534 35.4247 75.6543 35.4552 75.4583L35.6645 73.9208C35.688 73.7239 35.7371 73.5309 35.8106 73.3467C35.8722 73.1952 35.9661 73.0589 36.0856 72.9472C36.2093 72.8362 36.3608 72.761 36.524 72.7293V72.7293ZM37.0488 73.4271C37.0015 73.418 36.9525 73.424 36.9088 73.4444C36.8701 73.4659 36.8396 73.4996 36.8223 73.5404C36.8027 73.58 36.7871 73.6214 36.7756 73.664C36.7661 73.7021 36.7583 73.7505 36.7496 73.8067L36.4695 75.8621C36.4617 75.92 36.4574 75.9667 36.4556 76.0057C36.4549 76.0501 36.459 76.0944 36.4678 76.1379C36.4747 76.1819 36.496 76.2224 36.5283 76.2529C36.5655 76.2837 36.6109 76.3029 36.6589 76.3083C36.699 76.3147 36.7401 76.3106 36.7782 76.2962C36.8088 76.2844 36.8363 76.2657 36.8586 76.2417C36.8812 76.2135 36.8982 76.1812 36.9088 76.1466C36.9207 76.1128 36.9299 76.0781 36.9364 76.0428C36.9407 76.0152 36.9468 75.9771 36.9537 75.9287L37.2339 73.8733C37.2408 73.8257 37.2451 73.7868 37.2486 73.76C37.2513 73.724 37.2513 73.6879 37.2486 73.6519C37.2476 73.6157 37.24 73.5799 37.2261 73.5464C37.211 73.5169 37.1895 73.4912 37.163 73.4712C37.1313 73.4458 37.0928 73.4304 37.0523 73.4271H37.0488Z" fill="white"/>
<path d="M33.2832 72.041L32.0328 76.0515L30.8351 75.6788C30.6833 75.631 30.5349 75.5733 30.3907 75.5059C30.2672 75.4486 30.151 75.3765 30.0448 75.2914C29.9443 75.2176 29.8625 75.1211 29.8062 75.0098C29.7498 74.8984 29.7205 74.7754 29.7205 74.6507C29.7171 74.4939 29.7408 74.3376 29.7906 74.1889C29.8503 73.967 29.9532 73.7589 30.0932 73.5767C30.2266 73.4302 30.4072 73.3354 30.6034 73.3086L30.6553 71.2178L31.6834 71.5386L31.5468 73.4409L31.75 73.5041L32.3026 71.7314L33.2832 72.041ZM31.5805 74.0471L31.3211 73.9676C31.2604 73.9405 31.1938 73.9295 31.1277 73.9355C31.0615 73.9416 30.998 73.9645 30.9432 74.0021C30.8367 74.1002 30.7612 74.2274 30.7262 74.3679C30.6771 74.4985 30.6666 74.6405 30.6959 74.7769C30.7143 74.8328 30.7469 74.883 30.7906 74.9224C30.8343 74.9618 30.8875 74.9892 30.945 75.0017L31.2502 75.096L31.5805 74.0471Z" fill="white"/>
<path d="M28.2704 70.2113L26.4545 73.9987L25.5293 73.5551L27.3452 69.7686L28.2704 70.2113Z" fill="white"/>
<path d="M24.6103 68.229L22.7296 71.1094L23.2424 71.4449L22.8273 72.0813L20.9414 70.8508L21.3573 70.2136L21.8684 70.5473L23.7491 67.667L24.6103 68.229Z" fill="white"/>
<path d="M14.094 57.354L10.7692 60.0147L10.3481 59.2606L12.5868 57.5667L9.98494 58.6043L9.53271 57.7915L13.5519 56.376L14.094 57.354Z" fill="white"/>
<path d="M11.5111 51.7625C11.7643 52.0958 11.9108 52.4979 11.9313 52.916C11.9356 53.0818 11.8937 53.2456 11.8103 53.389C11.7255 53.5269 11.612 53.6449 11.4774 53.7349C11.3127 53.8458 11.1342 53.9347 10.9464 53.9995L9.49028 54.5312C9.30491 54.6018 9.11145 54.6488 8.9144 54.6713C8.75215 54.6878 8.58826 54.6695 8.43362 54.6177C8.27817 54.5607 8.14102 54.4627 8.03671 54.3341C7.78256 54.0012 7.63569 53.5989 7.61559 53.1806C7.61088 53.0143 7.6525 52.8499 7.7358 52.7059C7.81957 52.5653 7.93287 52.4447 8.06784 52.3522C8.23259 52.2416 8.41068 52.1524 8.59789 52.0867L10.0549 51.5558C10.2399 51.4842 10.4336 51.4374 10.6308 51.4166C10.7935 51.4007 10.9577 51.4196 11.1125 51.4719C11.2691 51.531 11.4069 51.6314 11.5111 51.7625V51.7625ZM11.1401 52.5519C11.1238 52.5056 11.0936 52.4655 11.0537 52.4369C11.0166 52.411 10.9717 52.3988 10.9266 52.4024C10.8823 52.4032 10.8382 52.4087 10.7951 52.4188C10.7486 52.4311 10.7027 52.4459 10.6576 52.4629L8.70859 53.1737C8.6631 53.1897 8.61861 53.2084 8.57541 53.2299C8.53633 53.2494 8.49952 53.2732 8.4656 53.3008C8.4292 53.3273 8.40296 53.3654 8.39124 53.4089C8.3806 53.456 8.38484 53.5052 8.40335 53.5498C8.41606 53.5882 8.43873 53.6225 8.46906 53.6493C8.49368 53.6714 8.52338 53.6872 8.55554 53.6951C8.59102 53.7012 8.62727 53.7012 8.66275 53.6951C8.69816 53.6899 8.73314 53.6821 8.76738 53.6717C8.79448 53.6631 8.8308 53.6501 8.87634 53.6328L10.8254 52.9212C10.8615 52.9094 10.897 52.8958 10.9317 52.8805C10.9654 52.8672 10.9978 52.851 11.0286 52.8321C11.0609 52.8138 11.0901 52.7905 11.1151 52.7629C11.1337 52.7353 11.1463 52.7041 11.1522 52.6713C11.1591 52.6311 11.1549 52.5899 11.1401 52.5519V52.5519Z" fill="white"/>
<path d="M10.5386 48.1684L7.16628 48.8429L7.28733 49.4438L6.54195 49.5934L6.1001 47.385L6.8446 47.2363L6.9648 47.8346L10.3372 47.1602L10.5386 48.1684Z" fill="white"/>
<path d="M9.91751 44.0846L5.72371 44.3181L5.61475 42.3552L6.30217 42.3171L6.35405 43.2527L7.29054 43.2017L7.25164 42.5022L7.96501 42.4632L8.0048 43.1611L9.17475 43.0954L9.122 42.1494L9.80771 42.1113L9.91751 44.0846Z" fill="white"/>
<path d="M10.2524 36.0745L6.1416 35.2098L6.29117 34.4955L8.20998 34.1133L6.44943 33.7441L6.62238 32.9131L10.7332 33.7778L10.5888 34.4635L8.49791 34.8094L10.4323 35.215L10.2524 36.0745Z" fill="white"/>
<path d="M11.4282 31.3733L7.78174 29.1544L8.21409 28.0381L12.4053 28.8414L12.0681 29.7182L11.238 29.5453L11.0434 30.0537L11.7793 30.4722L11.4282 31.3733ZM10.5151 29.7606L10.6509 29.4087L9.11859 29.0221L10.5151 29.7606Z" fill="white"/>
<path d="M16.098 22.6497C16.0124 22.7934 15.8979 22.9176 15.7617 23.0146C15.6255 23.1115 15.4705 23.1789 15.3068 23.2126C14.9291 23.2217 14.5608 23.0946 14.2691 22.8546L14.685 22.0764C14.7786 22.1465 14.8778 22.2087 14.9816 22.2623C15.0482 22.2994 15.1208 22.3243 15.1961 22.3358C15.243 22.3429 15.2909 22.3379 15.3353 22.3211C15.3723 22.3056 15.4042 22.2798 15.4269 22.2468C15.4944 22.1525 15.4607 22.0583 15.3266 21.9614C15.2098 21.8721 15.0695 21.8186 14.9228 21.8075C14.7477 21.8022 14.5728 21.8235 14.404 21.8706L14.0659 21.9571C13.9423 21.9874 13.8368 22.0072 13.7486 22.0211C13.6485 22.0333 13.5476 22.0376 13.4468 22.034C13.3326 22.0306 13.2198 22.0081 13.113 21.9675C12.9941 21.9214 12.8819 21.8597 12.7792 21.7841C12.6476 21.701 12.5355 21.5904 12.4509 21.4597C12.3662 21.3291 12.311 21.1816 12.2889 21.0275C12.2675 20.6996 12.37 20.3756 12.576 20.1196C12.9795 19.5581 13.5142 19.5146 14.18 19.989L13.7304 20.7672C13.6439 20.7024 13.5739 20.6557 13.5281 20.6263C13.4802 20.5936 13.4299 20.5647 13.3776 20.5398C13.3374 20.5181 13.2914 20.5096 13.2461 20.5156C13.2102 20.5261 13.1794 20.5495 13.1597 20.5813C13.1431 20.6071 13.1343 20.6372 13.1343 20.6678C13.1343 20.6985 13.1431 20.7285 13.1597 20.7543C13.1912 20.8145 13.2358 20.8668 13.2903 20.9073C13.3173 20.9277 13.3463 20.9453 13.3767 20.9601L13.4632 20.999C13.4904 21.0117 13.5197 21.0196 13.5497 21.0223C13.5851 21.0267 13.6119 21.031 13.6361 21.0353C13.6649 21.0389 13.6939 21.0389 13.7226 21.0353C13.7624 21.0353 13.7892 21.0301 13.8039 21.0301C13.833 21.0285 13.8619 21.0245 13.8904 21.018C13.9336 21.0102 13.9604 21.005 13.969 21.0024L14.0555 20.9826C14.1039 20.9722 14.1308 20.9661 14.1351 20.9661L14.4524 20.8935C14.5726 20.867 14.6941 20.847 14.8165 20.8338C14.9314 20.8225 15.0471 20.8211 15.1623 20.8295C15.2875 20.8378 15.4108 20.8646 15.5281 20.9091C15.6542 20.9586 15.7735 21.0237 15.8835 21.1028C16.0004 21.183 16.0996 21.2863 16.175 21.4063C16.2504 21.5263 16.3004 21.6605 16.3219 21.8006C16.3443 21.9499 16.336 22.1022 16.2975 22.2482C16.2589 22.3942 16.1911 22.5308 16.098 22.6497V22.6497Z" fill="white"/>
<path d="M19.2819 18.9795C19.1379 19.1289 18.9713 19.2547 18.7882 19.3521C18.6464 19.4262 18.4868 19.4592 18.3273 19.4473C18.1712 19.4329 18.0205 19.3826 17.8871 19.3003C17.7212 19.196 17.5688 19.0716 17.4332 18.9302L15.3726 16.8445L16.0998 16.1259L18.2823 18.3326C18.3165 18.3681 18.3529 18.4013 18.3912 18.4321C18.4273 18.4598 18.4658 18.4841 18.5062 18.5047C18.5469 18.5276 18.5941 18.5362 18.6403 18.529C18.6889 18.5201 18.7333 18.4955 18.7665 18.4589C18.8035 18.4257 18.8286 18.3814 18.8383 18.3326C18.8466 18.2867 18.8387 18.2393 18.8158 18.1986C18.7955 18.1579 18.7712 18.1194 18.7432 18.0836C18.7123 18.0456 18.6793 18.0092 18.6446 17.9747L16.4621 15.7671L17.1919 15.0459L19.2525 17.1307C19.3929 17.2678 19.5155 17.4221 19.6174 17.5899C19.6976 17.7242 19.7464 17.875 19.7601 18.0309C19.7702 18.1907 19.7351 18.3501 19.6589 18.4909C19.5596 18.6725 19.4324 18.8374 19.2819 18.9795V18.9795Z" fill="white"/>
<path d="M22.0465 16.4277L20.2393 12.5599L21.2146 11.8682L24.2601 14.8583L23.4931 15.4014L22.9008 14.796L22.4564 15.1108L22.8386 15.8683L22.0465 16.4277ZM22.1796 14.5782L22.4884 14.3602L21.4256 13.1912L22.1796 14.5782Z" fill="white"/>
<path d="M29.6545 12.0898L28.1992 8.15025L29.9606 7.5L30.1993 8.14507L29.4029 8.43991L29.7349 9.34096L30.4535 9.07549L30.7008 9.74563L29.9831 10.0111L30.6195 11.7336L29.6545 12.0898Z" fill="white"/>
<path d="M33.5995 10.7854L33.4819 6.51716L34.6519 6.27246L36.255 10.2276L35.335 10.4205L35.0341 9.62666L34.5006 9.73994L34.549 10.5856L33.5995 10.7854ZM34.4582 9.14242L34.8274 9.0646L34.319 7.57039L34.4582 9.14242Z" fill="white"/>
<path d="M39.1388 9.90665L38.1997 5.75607L39.0644 5.70765L39.6083 8.46174L39.8107 5.66698L40.7394 5.61426L40.2543 9.85132L39.1388 9.90665Z" fill="white"/>
<path d="M45.3199 10.0283C45.1161 10.0733 44.9062 10.0833 44.699 10.0576C44.4914 10.0415 44.2882 9.98882 44.0989 9.90198C43.9483 9.83296 43.8197 9.72376 43.7271 9.58637C43.637 9.44981 43.578 9.29515 43.5542 9.13328C43.5274 8.93685 43.5257 8.73782 43.549 8.54096L43.7081 6.99917C43.7244 6.8014 43.7665 6.60664 43.8335 6.41983C43.8898 6.26658 43.9783 6.12711 44.0929 6.0108C44.2129 5.89494 44.3625 5.8142 44.5252 5.77734C44.9358 5.69429 45.3619 5.73801 45.747 5.90271C45.8984 5.97196 46.0282 6.08107 46.1223 6.21835C46.2113 6.35584 46.2702 6.51052 46.2953 6.67231C46.3226 6.86867 46.325 7.0677 46.3022 7.26464L46.1431 8.80727C46.1263 9.00484 46.0835 9.19935 46.016 9.38576C45.9601 9.53926 45.8716 9.67879 45.7566 9.79476C45.6352 9.91118 45.4841 9.99196 45.3199 10.0283V10.0283ZM44.7725 9.34858C44.8204 9.35574 44.8694 9.34789 44.9126 9.3261C44.9519 9.3038 44.9825 9.26871 44.9991 9.22667C45.0168 9.18617 45.031 9.14421 45.0415 9.10127C45.0495 9.06322 45.0564 9.01568 45.0622 8.95861L45.2749 6.89541C45.2792 6.83747 45.2827 6.78992 45.2827 6.75101C45.2817 6.70708 45.2765 6.66336 45.2671 6.62043C45.2585 6.5761 45.2358 6.53576 45.2023 6.50543C45.1639 6.4765 45.1179 6.45936 45.07 6.45614C45.0298 6.451 44.989 6.45637 44.9515 6.47171C44.921 6.48396 44.894 6.50355 44.8728 6.52876C44.8507 6.55756 44.8345 6.59048 44.8253 6.62561C44.8143 6.65974 44.8062 6.69474 44.8011 6.73024C44.8011 6.75704 44.7933 6.79598 44.7881 6.84527L44.5763 8.90844C44.5711 8.95514 44.5676 8.99491 44.565 9.02258C44.5626 9.05856 44.5626 9.09468 44.565 9.13066C44.5672 9.16692 44.5763 9.20243 44.5918 9.2353C44.6077 9.26404 44.6299 9.28887 44.6567 9.30794C44.6902 9.33312 44.7306 9.34731 44.7725 9.34858V9.34858Z" fill="white"/>
<path d="M48.5732 10.6051L49.687 6.55566L50.8976 6.88858C51.0511 6.92956 51.2016 6.98097 51.3481 7.04248C51.4737 7.09518 51.5924 7.16283 51.7018 7.24396C51.802 7.31565 51.8857 7.40795 51.9473 7.51463C52.0056 7.62557 52.0398 7.74756 52.0476 7.87262C52.0565 8.02996 52.0381 8.18764 51.9932 8.3387C51.9407 8.5622 51.8452 8.77335 51.7121 8.96042C51.5837 9.11136 51.4061 9.21209 51.2106 9.24489L51.2288 11.3358L50.1911 11.0513L50.2638 9.14891L50.058 9.09358L49.5659 10.8835L48.5732 10.6051ZM50.2076 8.54189L50.467 8.6128C50.5286 8.63764 50.5955 8.64638 50.6615 8.63821C50.7274 8.63004 50.7902 8.60524 50.844 8.56612C50.9467 8.46406 51.0173 8.33422 51.0472 8.19256C51.0926 8.06081 51.0986 7.91867 51.0645 7.78356C51.0441 7.72779 51.0094 7.67837 50.9639 7.64027C50.9183 7.60217 50.8635 7.57673 50.805 7.56651L50.4972 7.48004L50.2076 8.54189Z" fill="white"/>
<path d="M53.6504 12.2631L55.3374 8.41602L56.2774 8.82847L54.5903 12.6747L53.6504 12.2631Z" fill="white"/>
<path d="M57.3745 14.1253L59.1584 11.1853L58.6344 10.867L59.0287 10.2168L60.9535 11.3859L60.5601 12.0353L60.0413 11.7188L58.2574 14.6588L57.3745 14.1253Z" fill="white"/>
<path d="M60.6094 16.2618L63.878 13.5146L64.798 14.2782L62.6985 17.9964L61.9748 17.3963L62.4071 16.6665L61.9877 16.3206L61.3548 16.8844L60.6094 16.2618ZM62.4304 15.9159L62.7201 16.1572L63.5762 14.829L62.4304 15.9159Z" fill="white"/>
<path d="M51.9096 41.8185L42.1445 51.5837V27.9141H40.4151V51.5837L30.6499 41.8185L29.4272 43.0412L41.2798 54.8929L53.1323 43.0404L51.9096 41.8185Z" fill="white"/>
<path d="M16.9824 65.828C17.4599 65.828 17.8471 65.4409 17.8471 64.9633C17.8471 64.4858 17.4599 64.0986 16.9824 64.0986C16.5048 64.0986 16.1177 64.4858 16.1177 64.9633C16.1177 65.4409 16.5048 65.828 16.9824 65.828Z" fill="white"/>
<path d="M67.2978 21.3466C67.7754 21.3466 68.1625 20.9595 68.1625 20.4819C68.1625 20.0043 67.7754 19.6172 67.2978 19.6172C66.8202 19.6172 66.4331 20.0043 66.4331 20.4819C66.4331 20.9595 66.8202 21.3466 67.2978 21.3466Z" fill="white"/>
<defs>
<linearGradient id="paint0_linear_269_50" x1="-3.5581e-08" y1="41" x2="83" y2="41" gradientUnits="userSpaceOnUse">
<stop stop-color="#9C7A47"/>
<stop offset="1" stop-color="#CBA265"/>
</linearGradient>
</defs>
</svg>
